<svg width="627" height="102" viewBox="0 0 627 102" fill="none" xmlns="http://www.w3.org/2000/svg">
<path d="M46.1582 17.5888V34.9221H52.1582H58.1582V17.5888V0.255451H52.1582H46.1582V17.5888Z" fill="black"/>
<path d="M97.225 2.78879C84.5584 8.65545 84.1584 25.8555 96.6917 32.1221C100.958 34.3888 104.558 34.9221 113.758 34.9221C130.158 34.7888 139.492 30.2555 139.492 22.3888C139.492 18.9221 129.092 19.5888 125.092 23.1888C122.558 25.7221 120.425 26.2555 114.158 26.2555C104.692 26.2555 100.825 23.4555 100.825 16.6555C100.825 12.6555 101.492 11.8555 105.758 10.1221C111.758 7.58879 120.958 8.65545 126.158 12.5221C129.492 14.9221 136.958 15.3221 139.225 13.0555C140.692 11.4555 136.692 5.58879 132.558 3.45545C125.625 -0.277879 104.558 -0.677879 97.225 2.78879Z" fill="black"/>
<path d="M155.358 1.45545C146.558 4.25545 142.158 9.58878 142.158 17.5888C142.158 29.3221 150.825 34.7888 169.225 34.9221C187.892 34.9221 195.492 29.9888 195.492 17.4555C195.492 9.58878 191.358 4.12212 183.758 1.85545C177.892 0.122117 160.692 -0.144549 155.358 1.45545ZM179.758 11.1888C182.825 12.7888 184.025 17.9888 182.158 21.5888C179.225 27.0555 168.158 28.6555 160.158 24.7888C152.692 21.3221 153.225 11.9888 161.092 9.72212C165.758 8.38878 176.025 9.18878 179.758 11.1888Z" fill="black"/>
<path d="M199.492 17.5888V34.9221H205.492H211.358L211.758 23.9888L212.158 13.0555L224.158 23.9888C235.625 34.3888 236.425 34.7888 242.558 34.9221H248.825V17.5888V0.255451H242.825H236.825V10.2555C236.825 15.7221 236.425 20.2555 235.758 20.2555C235.225 20.2555 229.892 15.7221 223.892 10.2555C213.358 0.522117 212.825 0.255451 206.292 0.255451H199.492V17.5888Z" fill="black"/>
<path d="M262.825 2.25534C255.492 4.92201 252.825 8.78868 252.825 17.0553C252.825 25.0553 256.025 30.2553 262.958 33.0553C268.292 35.322 288.292 35.5887 293.758 33.4553C299.092 31.4553 303.492 26.922 303.492 23.322C303.492 20.522 302.825 20.2553 297.492 20.2553C293.358 20.2553 291.225 20.922 290.692 22.2553C288.558 27.722 270.692 27.9887 266.825 22.522C262.558 16.522 265.492 10.7887 273.625 9.05535C278.825 7.85535 288.025 9.98868 290.825 12.7887C292.158 13.9887 295.225 14.922 298.292 14.922C302.825 14.922 303.492 14.522 303.492 11.8553C303.492 7.98868 299.092 3.85535 292.958 1.72201C286.692 -0.277988 269.358 -0.0113218 262.825 2.25534Z" fill="black"/>
<path d="M307.892 11.722C308.825 28.7887 313.492 33.5887 329.892 34.6553C340.825 35.4553 348.958 32.3887 352.825 26.3887C354.958 22.922 355.492 19.722 355.492 11.0553V0.255325H349.492H343.492V10.2553C343.492 22.6553 341.358 25.5887 332.292 25.5887C322.958 25.5887 320.558 22.7887 319.758 10.522L319.092 0.255325H313.092H307.092L307.892 11.722Z" fill="black"/>
<path d="M412.825 2.6553C408.692 4.6553 408.158 5.4553 408.158 10.122C408.158 17.9886 412.158 20.2553 427.492 21.322C440.425 22.2553 444.158 24.3886 437.492 26.922C431.092 29.322 419.492 27.4553 419.492 23.9886C419.492 23.4553 416.558 22.922 412.825 22.922C409.225 22.922 406.158 23.1886 406.158 23.5886C406.158 26.6553 410.825 32.2553 414.292 33.4553C420.825 35.722 442.825 35.322 447.625 32.922C455.758 28.6553 455.492 17.5886 446.958 15.0553C444.692 14.3886 438.158 13.4553 432.425 13.0553C421.358 12.2553 418.958 11.5886 420.158 9.4553C421.492 7.32197 437.625 7.98864 439.492 10.2553C440.558 11.4553 443.492 12.2553 447.092 12.2553C452.558 12.2553 452.958 11.9886 452.025 9.18864C451.625 7.58864 450.558 5.4553 449.892 4.6553C446.025 -0.144698 420.958 -1.47803 412.825 2.6553Z" fill="black"/>
<path d="M467.892 1.72201C457.358 4.78867 452.958 19.4553 460.292 28.122C462.158 30.3887 465.892 32.7887 468.558 33.5887C474.958 35.322 565.225 35.322 571.625 33.5887C574.158 32.922 578.025 30.522 580.158 28.2553C583.358 24.922 584.025 23.1887 583.892 17.4553C583.758 11.9887 583.092 9.98867 580.025 6.78867C578.025 4.65534 574.158 2.25534 571.625 1.58867C565.625 -0.011326 473.758 -0.011326 467.892 1.72201ZM569.358 11.322C572.292 13.322 572.958 14.6553 572.558 17.9887C572.292 21.322 571.092 22.7887 567.492 24.6553C563.358 26.6553 558.425 26.922 520.425 26.922C494.558 26.7887 476.558 26.2553 474.158 25.322C464.692 22.122 465.625 11.0553 475.492 9.18867C477.358 8.78867 498.292 8.65534 522.158 8.78867C561.625 8.92201 565.892 9.18867 569.358 11.322Z" fill="black"/>
<path d="M360.825 18.2555V34.9221H366.025C371.358 34.9221 371.358 34.9221 371.758 29.1888L372.158 23.5888L378.692 23.1888C389.625 22.5221 391.492 23.4555 391.492 29.5888V34.9221H397.492H403.492V28.9221C403.492 24.9221 402.692 22.1221 401.092 20.5221C398.692 18.1221 398.692 17.9888 401.092 14.9221C403.892 11.4555 403.225 7.45545 399.225 3.85545C396.958 1.98878 393.758 1.58878 378.692 1.58878H360.825V18.2555ZM390.825 12.2555C390.825 13.8555 388.692 14.3888 381.225 14.6555C372.158 15.0555 371.492 14.9221 371.492 12.2555C371.492 9.58878 372.158 9.45545 381.225 9.85545C388.692 10.1221 390.825 10.6555 390.825 12.2555Z" fill="black"/>
<path d="M128.425 52.7887C116.292 56.1221 110.025 63.0554 109.092 73.9887C108.025 87.9887 116.292 96.9221 133.892 100.389C144.158 102.255 156.825 101.189 164.025 97.5887C169.492 94.9221 172.158 95.1887 170.958 98.3887C170.425 99.8554 171.758 100.255 176.958 100.255H183.625L183.225 86.6554L182.825 73.1887L164.425 73.0554L146.158 72.9221V77.8554V82.7887L156.558 83.1887L166.825 83.5887L161.892 85.9887C155.758 88.9221 140.425 89.5887 134.692 87.1887C129.092 84.7887 125.225 77.5887 126.825 72.7887C129.358 65.9887 134.425 63.5887 146.825 63.5887C156.292 63.5887 158.558 63.9887 162.025 66.5221C165.092 68.9221 167.892 69.5887 174.158 69.5887C181.225 69.5887 182.158 69.3221 182.158 67.0554C182.158 63.0554 176.158 56.7887 169.892 54.2554C162.292 51.0554 137.358 50.2554 128.425 52.7887Z" fill="black"/>
<path d="M332.825 75.5887V100.255H341.492H350.158V90.922V81.5887H430.692H511.358L511.758 78.522C512.025 76.922 512.025 74.2554 511.758 72.522L511.225 69.5887H430.692H350.158V66.2554V62.922H431.492H512.825V56.922V50.922H422.825H332.825V75.5887Z" fill="black"/>
<path d="M190.158 76.2554V100.255H198.158H206.158V92.2554V84.2554H218.558C226.425 84.2554 231.492 84.7887 232.558 85.8554C233.492 86.7887 234.158 90.3887 234.158 93.8554V100.255H242.292H250.425L249.892 90.7887C249.492 82.7887 248.825 80.922 246.292 78.7887L243.225 76.2554L246.692 72.122C250.825 67.1887 251.092 63.1887 247.492 58.6554C243.625 53.722 235.625 52.2554 211.625 52.2554H190.158V76.2554ZM233.358 66.3887C235.092 70.922 231.758 72.2554 218.692 72.2554H206.158V68.2554V64.2554H219.358C230.292 64.2554 232.692 64.6554 233.358 66.3887Z" fill="black"/>
<path d="M272.425 63.1887C269.225 69.322 263.358 80.122 259.492 87.1887L252.558 100.255H261.225C269.492 100.255 269.892 100.122 271.492 96.2554L273.092 92.2554H290.825H308.558L310.158 96.2554C311.758 100.122 312.158 100.255 320.425 100.255H329.092L323.758 90.522C320.825 85.322 315.092 74.522 310.825 66.522L303.225 52.2554H290.825H278.425L272.425 63.1887ZM297.225 71.5887L301.892 80.2554H290.692H279.492L282.292 74.522C286.692 65.9887 288.958 62.922 290.825 62.922C291.892 62.922 294.692 66.7887 297.225 71.5887Z" fill="black"/>
<path d="M520.825 76.2554V100.255H529.492H538.158V76.2554V52.2554H529.492H520.825V76.2554Z" fill="black"/>
<path d="M542.158 58.2554V64.2554H553.492H564.825V82.2554V100.255H573.492H582.158V82.2554V64.2554H593.492H604.825V58.2554V52.2554H573.492H542.158V58.2554Z" fill="black"/>
<path d="M608.825 76.2554V100.255H617.492H626.158V76.2554V52.2554H617.492H608.825V76.2554Z" fill="black"/>
<path d="M0.824951 88.2554V100.255H13.625C32.825 100.255 37.7583 97.1887 36.5583 85.4554C35.8916 78.522 30.1583 76.2554 13.8916 76.2554H0.824951V88.2554ZM23.8916 82.7887C25.625 83.4554 27.4916 85.322 27.8916 86.7887C29.0916 91.322 25.4916 93.5887 17.3583 93.5887H10.1583V87.5887V81.5887H15.3583C18.2916 81.5887 22.1583 82.122 23.8916 82.7887Z" fill="black"/>
<path d="M39.4917 88.2554V100.255H54.1584C67.8917 100.255 68.825 100.122 68.825 97.5887C68.825 95.1887 67.8917 94.922 59.8917 94.7887C54.825 94.6554 50.425 94.6554 49.8917 94.7887C49.225 94.7887 48.825 93.9887 48.825 92.922C48.825 91.322 50.6917 90.922 58.1584 90.922C67.225 90.922 67.4917 90.7887 67.4917 87.5887C67.4917 84.3887 67.225 84.2554 58.1584 84.2554C52.825 84.2554 48.825 83.722 48.825 82.922C48.825 82.122 53.0917 81.5887 58.825 81.5887C67.8917 81.5887 68.825 81.322 68.825 78.922C68.825 76.3887 67.8917 76.2554 54.1584 76.2554H39.4917V88.2554Z" fill="black"/>
</svg>
